<svg width="55" height="74" viewBox="0 0 55 74" fill="none" xmlns="http://www.w3.org/2000/svg">
<path fill-rule="evenodd" clip-rule="evenodd" d="M21.0045 41.9805C17.1732 37.4834 14.5801 31.972 15.0134 25.7964C16.2619 8.00277 41.0313 11.9171 45.8495 20.8979C50.6676 29.8786 50.0951 52.6589 43.868 54.264C41.3847 54.9041 36.0945 53.3361 30.7102 50.0907L34.0898 74H14.1348L21.0045 41.9805Z" fill="#A68362"/>
<path fill-rule="evenodd" clip-rule="evenodd" d="M6.31317 19.8733C5.66864 19.2346 5.31707 18.323 5.01294 17.4573C4.6971 16.5581 4.39022 15.6495 4.18053 14.7136C3.76154 12.8434 3.75755 10.6927 5.09169 9.24055C6.16164 8.07605 7.76708 7.55374 9.24876 7.44023C10.2359 7.36453 11.2498 7.50278 12.1961 7.81386C13.1349 8.12247 13.9442 8.73752 14.8544 9.11926C14.8891 7.10392 15.2343 4.99516 16.2568 3.27436C17.2406 1.61866 18.8093 0.689549 20.5957 0.443743C22.4292 0.191484 24.2399 0.620548 25.8813 1.50821C26.2923 1.73052 26.6994 1.96342 27.089 2.22702C27.4153 2.44775 27.7545 2.71358 28.1373 2.80335C28.564 2.90354 28.7755 2.65707 29.0529 2.34574C29.378 1.98071 29.7444 1.6592 30.1321 1.37418C31.8463 0.114126 34.0955 -0.40396 36.0815 0.351328C36.9966 0.699311 37.8864 1.29029 38.5072 2.10465C39.0606 2.83057 39.4553 3.98207 40.2191 4.48783C40.5432 4.70253 40.7721 4.41809 41.0672 4.20786C41.5105 3.89197 41.9332 3.54341 42.3818 3.23613C43.012 2.80442 43.6942 2.48151 44.4249 2.31248C45.4944 2.06502 46.9725 2.12302 47.2783 3.52389C47.3931 4.05008 47.3051 4.61284 47.268 5.14301C47.2171 5.871 47.164 6.59873 47.1008 7.32564C47.0528 7.87757 46.9921 8.41063 46.8879 8.95263C46.8324 9.24154 46.6585 9.78015 46.7824 10.0695C46.9372 10.4311 47.6518 10.2255 47.9571 10.2381C48.56 10.263 49.1655 10.3687 49.723 10.6264C50.1551 10.8261 50.6094 11.1198 50.7918 11.615C50.9039 11.9193 50.8744 12.2318 50.8214 12.5447C50.7579 12.9204 50.8305 13.1196 50.878 13.4986C51.6878 13.0998 54.4941 12.2138 54.8472 13.6651C54.9648 14.1484 54.6971 14.6944 54.4928 15.102C54.1346 15.8168 53.6649 16.4702 53.1848 17.0933C52.1832 18.3931 50.9875 19.5143 49.7011 20.4731C51.2083 21.1431 51.6018 23.1196 50.2968 24.2972C49.7206 24.8171 48.9459 24.9328 48.2191 24.8996C47.9531 24.8874 47.5696 24.7851 47.3603 24.8315C47.2476 24.8564 47.127 24.9519 46.971 24.9625C45.9453 25.0328 44.7874 24.7856 43.7847 24.558C41.998 24.1525 40.3066 23.306 38.9253 22.0168C38.571 21.6861 38.2782 21.4958 37.8013 21.5006C37.3834 21.5049 36.9733 21.6194 36.5558 21.63C35.451 21.6583 34.4549 21.1182 33.429 20.7587C33.3662 22.1446 32.9715 23.6709 32.4046 24.9178C31.9423 25.9345 30.9769 26.0823 30.0282 26.1714C26.9946 26.4569 23.9503 26.1384 20.9128 26.1426C23.8532 26.8072 26.8915 27.0811 29.8058 27.8632C31.1231 28.2167 30.1172 29.1045 29.5539 29.72C28.6264 30.7335 27.9368 31.9892 27.4585 33.3121C26.0202 31.4372 23.4778 30.2018 21.2254 30.7778C18.7366 31.4141 16.9842 34.7797 18.5756 37.1993C19.4996 38.6039 21.1681 39.1461 22.5564 39.7496C21.4733 40.8756 21.2114 42.5387 20.5595 43.9395C20.238 44.6304 19.7867 45.4115 19.0677 45.6522C18.8017 45.7413 18.4898 45.749 18.2799 45.9658C18.0199 46.2343 17.958 46.5344 17.626 46.7652C16.3013 47.6862 14.232 47.6152 13.0579 46.4133C11.996 45.3264 12.2723 43.6063 13.1591 42.5043C11.7474 41.9158 9.1756 41.1591 9.73664 38.9598C6.67776 38.7567 -0.749107 33.7957 3.35638 30.1706C1.10329 28.8972 -0.966679 25.7852 0.480568 23.042C1.59499 20.9296 4.18673 19.9853 6.31317 19.8733Z" fill="#134A5B"/>
</svg>
