<svg width="44" height="74" viewBox="0 0 44 74" fill="none" xmlns="http://www.w3.org/2000/svg">
<path fill-rule="evenodd" clip-rule="evenodd" d="M10.1248 36.0036C5.57829 30.667 2.50115 24.1269 3.01534 16.7985C4.49687 -4.31663 33.8899 0.328431 39.6074 10.9855C45.3249 21.6426 44.6455 48.6752 37.2561 50.58C34.3092 51.3396 28.0315 49.4788 21.6422 45.6277L25.6526 74H1.97266L10.1248 36.0036Z" fill="#B58E6B"/>
<path fill-rule="evenodd" clip-rule="evenodd" d="M17.4934 24.5354C16.719 24.0032 15.7938 23.68 14.8 23.68C12.0754 23.68 9.86666 26.1096 9.86666 28.6133C9.86666 31.218 11.0966 33.2319 12.8531 34.0863C11.915 35.9205 10.9717 37.2515 9.86666 37.4933C5.60243 37.0619 0 26.4629 0 17.76C0 8.23423 7.57955 0 21.7067 0C34.4041 0 39.2186 5.23546 39.4666 9.86666C34.0255 11.3621 24.5179 11.9379 10.8533 11.84V12.8267L22.6933 13.8133L24.6667 19.7333C21.5272 19.4989 19.2837 21.6524 17.4934 24.5354Z" fill="#9E5443"/>
</svg>
