<svg width="47" height="74" viewBox="0 0 47 74" fill="none" xmlns="http://www.w3.org/2000/svg">
<path fill-rule="evenodd" clip-rule="evenodd" d="M8.94784 35.9935C4.02349 30.6555 0.690583 24.1136 1.24751 16.7833C2.85219 -4.33747 34.6882 0.308828 40.881 10.9688C47.0737 21.6287 46.3379 48.6685 38.3343 50.5737C35.1425 51.3335 28.3429 49.4723 21.4226 45.6202L25.7663 74H0.118164L8.94784 35.9935Z" fill="#CCBA9F"/>
<path fill-rule="evenodd" clip-rule="evenodd" d="M22.7055 19.1159C23.6873 31.7458 26.2843 38.0607 30.4967 38.0607C36.8155 38.0607 42.1766 34.3561 44.9492 34.3561C46.9703 34.3561 46.5191 36.6919 45.1794 38.4237C44.0741 39.8525 38.6914 41.2297 38.6914 43.4448C38.6914 45.6599 42.9442 43.9462 42.9442 45.2599C42.9442 47.433 43.6916 51.5188 39.6076 51.5188C35.4744 51.5188 23.624 50.1278 21.5931 44.4627C20.2825 40.8066 19.4351 33.2305 19.0509 21.7345C18.8001 21.7069 18.545 21.6928 18.2862 21.6928C14.7449 21.6928 11.8742 24.344 11.8742 27.6144C11.8742 29.2746 12.614 30.7752 13.8058 31.8505C12.3222 33.7845 10.6594 35.8048 8.75406 37.8895C1.5961 33.9235 -3.71552 22.3135 3.28255 11.1606C5.21684 5.6969 9.59579 2.77855 14.7674 1.42346C18.9568 -0.194889 23.3057 -0.377361 26.9767 0.592828C34.1731 1.16287 40.5991 3.18938 42.4203 4.39287C42.4203 10.6848 41.1001 12.5515 29.8245 12.387C27.0539 13.7383 24.924 16.0652 22.7055 19.1159Z" fill="#0C0C0C"/>
</svg>
