<svg width="30" height="28" viewBox="0 0 30 28" fill="none" xmlns="http://www.w3.org/2000/svg">
<path d="M23.4698 27.4092C23.3968 27.4092 23.3255 27.3881 23.2643 27.3484L15 21.9507L6.73502 27.3484C6.67134 27.3901 6.59651 27.4114 6.52045 27.4095C6.4444 27.4076 6.37072 27.3826 6.3092 27.3378C6.24768 27.2931 6.20123 27.2307 6.17602 27.1589C6.1508 27.0871 6.14801 27.0093 6.16802 26.936L8.74577 17.4079L1.06052 11.2152C1.00089 11.1678 0.957163 11.1033 0.935175 11.0303C0.913187 10.9574 0.913986 10.8795 0.937467 10.807C0.960948 10.7345 1.00599 10.6709 1.06658 10.6247C1.12716 10.5785 1.20041 10.5519 1.27652 10.5484L11.136 10.0564L14.6505 0.832948C14.76 0.541198 15.2408 0.541198 15.351 0.832948L18.8648 10.0564L28.7243 10.5484C28.8002 10.5523 28.8731 10.5791 28.9334 10.6254C28.9938 10.6716 29.0386 10.7351 29.062 10.8074C29.0854 10.8797 29.0863 10.9574 29.0646 11.0302C29.0429 11.1031 28.9995 11.1676 28.9403 11.2152L21.255 17.4079L23.8328 26.936C23.8479 26.9917 23.85 27.0501 23.8388 27.1067C23.8276 27.1633 23.8035 27.2166 23.7684 27.2624C23.7333 27.3082 23.6881 27.3453 23.6363 27.3708C23.5845 27.3962 23.5275 27.4094 23.4698 27.4092ZM15 21.1287C15.0727 21.1287 15.1438 21.1498 15.2048 21.1894L22.8503 26.1822L20.4653 17.3674C20.4464 17.297 20.4483 17.2227 20.4708 17.1533C20.4933 17.084 20.5354 17.0226 20.592 16.9767L27.7013 11.2474L18.5813 10.7929C18.5087 10.7892 18.4389 10.7644 18.3802 10.7216C18.3215 10.6789 18.2764 10.62 18.2505 10.5522L15 2.01945L11.7488 10.5522C11.7232 10.6203 11.6782 10.6793 11.6195 10.7221C11.5607 10.7649 11.4906 10.7895 11.418 10.7929L2.29802 11.2474L9.40802 16.9767C9.46472 17.0226 9.50688 17.0839 9.52938 17.1533C9.55188 17.2226 9.55375 17.297 9.53477 17.3674L7.14977 26.1822L14.7953 21.1894C14.8562 21.1498 14.9273 21.1287 15 21.1287Z" fill="#282828"/>
</svg>
