<svg width="30" height="30" viewBox="0 0 30 30" fill="none" xmlns="http://www.w3.org/2000/svg">
<path d="M27.0915 23.1916C26.2879 22.4752 25.5844 21.654 24.9998 20.75C24.3617 19.5021 23.9792 18.1393 23.8748 16.7416V12.625C23.8804 10.4296 23.084 8.30786 21.6355 6.65827C20.1869 5.00869 18.1858 3.94484 16.0082 3.66663V2.59163C16.0082 2.29657 15.891 2.0136 15.6823 1.80497C15.4737 1.59634 15.1907 1.47913 14.8957 1.47913C14.6006 1.47913 14.3176 1.59634 14.109 1.80497C13.9004 2.0136 13.7832 2.29657 13.7832 2.59163V3.68329C11.6251 3.98157 9.64815 5.05184 8.21861 6.69588C6.78908 8.33992 6.00378 10.4463 6.00817 12.625V16.7416C5.9038 18.1393 5.52132 19.5021 4.88317 20.75C4.30891 21.6519 3.61667 22.4731 2.82484 23.1916C2.73595 23.2697 2.66471 23.3658 2.61585 23.4736C2.567 23.5814 2.54165 23.6983 2.5415 23.8166V24.95C2.5415 25.171 2.6293 25.3829 2.78558 25.5392C2.94186 25.6955 3.15382 25.7833 3.37484 25.7833H26.5415C26.7625 25.7833 26.9745 25.6955 27.1308 25.5392C27.287 25.3829 27.3748 25.171 27.3748 24.95V23.8166C27.3747 23.6983 27.3493 23.5814 27.3005 23.4736C27.2516 23.3658 27.1804 23.2697 27.0915 23.1916ZM4.27484 24.1166C5.05018 23.3676 5.73284 22.5283 6.30817 21.6166C7.11201 20.1095 7.58103 18.4466 7.68317 16.7416V12.625C7.65012 11.6483 7.81394 10.675 8.16487 9.76302C8.51581 8.85101 9.04668 8.01895 9.72588 7.31638C10.4051 6.61381 11.2187 6.0551 12.1183 5.67352C13.0179 5.29194 13.9851 5.0953 14.9623 5.0953C15.9395 5.0953 16.9067 5.29194 17.8064 5.67352C18.706 6.0551 19.5196 6.61381 20.1988 7.31638C20.878 8.01895 21.4089 8.85101 21.7598 9.76302C22.1107 10.675 22.2746 11.6483 22.2415 12.625V16.7416C22.3436 18.4466 22.8127 20.1095 23.6165 21.6166C24.1918 22.5283 24.8745 23.3676 25.6498 24.1166H4.27484Z" fill="#282828"/>
<path d="M14.9999 28.5666C15.5249 28.5545 16.0286 28.3572 16.4221 28.0095C16.8156 27.6618 17.0734 27.1861 17.1499 26.6666H12.7666C12.8453 27.2002 13.1152 27.687 13.526 28.0365C13.9368 28.386 14.4606 28.5744 14.9999 28.5666Z" fill="#282828"/>
</svg>
