<svg width="50" height="50" viewBox="0 0 50 50" fill="none" xmlns="http://www.w3.org/2000/svg">
<path d="M39.1164 47.3488C38.9949 47.3488 38.8759 47.3137 38.7739 47.2475L25.0002 38.2513L11.2252 47.2475C11.119 47.3169 10.9943 47.3524 10.8676 47.3492C10.7408 47.346 10.618 47.3044 10.5155 47.2298C10.413 47.1552 10.3355 47.0512 10.2935 46.9316C10.2515 46.8119 10.2468 46.6823 10.2802 46.56L14.5764 30.68L1.76767 20.3588C1.6683 20.2797 1.59541 20.1722 1.55877 20.0506C1.52212 19.929 1.52345 19.7992 1.56259 19.6784C1.60172 19.5576 1.67679 19.4516 1.77777 19.3746C1.87875 19.2976 2.00082 19.2533 2.12767 19.2475L18.5602 18.4275L24.4177 3.055C24.6002 2.56875 25.4014 2.56875 25.5852 3.055L31.4414 18.4275L47.8739 19.2475C48.0004 19.2539 48.122 19.2986 48.2225 19.3757C48.3231 19.4528 48.3978 19.5586 48.4368 19.6791C48.4759 19.7996 48.4774 19.9291 48.4411 20.0505C48.4049 20.1719 48.3326 20.2794 48.2339 20.3588L35.4252 30.68L39.7214 46.56C39.7466 46.6528 39.7501 46.7502 39.7315 46.8446C39.7129 46.939 39.6727 47.0278 39.6142 47.1041C39.5556 47.1805 39.4803 47.2423 39.3939 47.2847C39.3076 47.3271 39.2126 47.349 39.1164 47.3488ZM25.0002 36.8813C25.1213 36.8812 34.0074 26.5161 34.1089 26.5822L38.0839 45.3038L34.1089 30.6125C34.0774 30.4951 34.0806 30.3712 34.1181 30.2556C34.1556 30.14 34.2258 30.0378 34.3202 29.9613L23 38.9999L30.9689 19.655C30.8481 19.6487 30.7316 19.6074 30.6338 19.5362C30.5359 19.4649 30.4608 19.3668 30.4177 19.2538L25.5852 24.4999L19.5814 19.2538C19.5388 19.3672 24.598 17.4286 24.5 17.4999C47.5 20.0505 24.2815 46.1004 14.8117 30.2555L3.83017 20.4125L15.6802 29.9613C15.7747 30.0377 15.8449 30.1399 15.8824 30.2555C34.1089 30.6125 15.9231 30.4952 15.8914 30.6125L27 28.4999L24.6589 36.9825C24.7605 36.9164 24.879 36.8812 25.0002 36.8813Z" fill="#404040"/>
</svg>
