<svg width="44" height="74" viewBox="0 0 44 74" fill="none" xmlns="http://www.w3.org/2000/svg">
<path fill-rule="evenodd" clip-rule="evenodd" d="M8.08552 36.8147C3.63609 31.592 0.624634 25.1915 1.12785 18.0195C2.57776 -2.64489 31.3433 1.90102 36.9388 12.3306C42.5343 22.7603 41.8694 49.2159 34.6378 51.0799C31.7538 51.8233 25.61 50.0023 19.3571 46.2334L23.2819 74H0.107422L8.08552 36.8147Z" fill="#EEC1BE"/>
<path fill-rule="evenodd" clip-rule="evenodd" d="M26.7181 13.8432C23.5733 15.6023 21.3352 18.8987 18.6411 23.2225C17.9849 22.9646 17.2703 22.8229 16.5226 22.8229C13.3229 22.8229 10.729 25.4168 10.729 28.6166C10.729 30.2409 11.3974 31.7091 12.4743 32.7611C11.1337 34.6533 9.63134 36.63 7.90976 38.6697C1.48526 34.8152 -3.29314 23.5813 2.84104 12.7365C8.11883 -8.9866 38.025 4.49666 43.7787 0.832982C45.0364 8.7159 40.9799 15.0721 26.7181 13.8432Z" fill="#574949"/>
</svg>
