<svg width="62" height="74" viewBox="0 0 62 74" fill="none" xmlns="http://www.w3.org/2000/svg">
<path fill-rule="evenodd" clip-rule="evenodd" d="M56.4731 17.5776C59.7858 29.7848 64.1029 57.2239 59.6976 61.5281H31.8275C31.8247 61.4786 31.8219 61.4293 31.8191 61.3801C21.4893 60.237 13.4551 51.4788 13.4551 40.8442V20.6623C13.4551 9.25084 22.7059 0 34.1174 0H36.0395C46.4027 0 54.9839 7.62925 56.4731 17.5776Z" fill="#3D2D69"/>
<path fill-rule="evenodd" clip-rule="evenodd" d="M24.2773 36.9906C19.8489 31.7926 16.8517 25.4223 17.3525 18.2843C18.7956 -2.2824 47.4251 2.24201 52.9942 12.6223C58.5632 23.0026 57.9014 49.3331 50.704 51.1883C47.8336 51.9282 41.7189 50.1158 35.4956 46.3647L39.4018 74.0001H16.3369L24.2773 36.9906Z" fill="#939393"/>
<path fill-rule="evenodd" clip-rule="evenodd" d="M30.513 33.516C31.5756 44.9312 31.1499 57.9671 27.9828 61.0616H0.1127C-1.44014 34.0817 13.5672 44.5295 13.5672 19.1273C14.5029 18.2131 15.387 17.3082 16.2619 16.5279L16.2309 15.7808C21.0569 5.9009 27.1795 0.960938 34.5988 0.960938C45.7276 0.960938 49.2404 6.13932 52.2312 10.5359C49.9947 18.2098 41.3155 19.3477 33.6034 24.1311C32.6944 23.3926 31.5353 22.9499 30.2727 22.9499C27.3535 22.9499 24.987 25.3164 24.987 28.2356C24.987 31.1548 27.3535 33.5213 30.2727 33.5213C30.3532 33.5213 30.4333 33.5195 30.513 33.516Z" fill="#3D2D69"/>
</svg>
