<svg width="130" height="39" viewBox="0 0 130 39" fill="none" xmlns="http://www.w3.org/2000/svg">
<path d="M16.2607 2.45312V38H11.6221V2.45312H16.2607ZM27.6865 2.45312V6.31055H0.220703V2.45312H27.6865ZM45.0693 33.4834V19.8848C45.0693 18.8431 44.8577 17.9398 44.4346 17.1748C44.0277 16.3936 43.4092 15.7913 42.5791 15.3682C41.749 14.945 40.7236 14.7334 39.5029 14.7334C38.3636 14.7334 37.3626 14.9287 36.5 15.3193C35.6536 15.71 34.9863 16.2227 34.498 16.8574C34.026 17.4922 33.79 18.1758 33.79 18.9082H29.2734C29.2734 17.9642 29.5176 17.0283 30.0059 16.1006C30.4941 15.1729 31.194 14.3346 32.1055 13.5859C33.0332 12.821 34.14 12.2188 35.4258 11.7793C36.7279 11.3236 38.1764 11.0957 39.7715 11.0957C41.6921 11.0957 43.3848 11.4212 44.8496 12.0723C46.3307 12.7233 47.4863 13.708 48.3164 15.0264C49.1628 16.3285 49.5859 17.9642 49.5859 19.9336V32.2383C49.5859 33.1172 49.6592 34.0531 49.8057 35.0459C49.9684 36.0387 50.2044 36.8932 50.5137 37.6094V38H45.8018C45.5739 37.4792 45.3949 36.7874 45.2646 35.9248C45.1344 35.0459 45.0693 34.2321 45.0693 33.4834ZM45.8506 21.9844L45.8994 25.1582H41.334C40.0482 25.1582 38.9007 25.264 37.8916 25.4756C36.8825 25.6709 36.0361 25.972 35.3525 26.3789C34.6689 26.7858 34.1481 27.2985 33.79 27.917C33.432 28.5192 33.2529 29.2272 33.2529 30.041C33.2529 30.8711 33.4401 31.6279 33.8145 32.3115C34.1888 32.9951 34.7503 33.5404 35.499 33.9473C36.264 34.3379 37.1999 34.5332 38.3066 34.5332C39.6901 34.5332 40.9108 34.2402 41.9688 33.6543C43.0267 33.0684 43.8649 32.3522 44.4834 31.5059C45.1182 30.6595 45.46 29.8376 45.5088 29.04L47.4375 31.2129C47.3236 31.8965 47.0143 32.6533 46.5098 33.4834C46.0052 34.3135 45.3298 35.111 44.4834 35.876C43.6533 36.6247 42.6605 37.2513 41.5049 37.7559C40.3656 38.2441 39.0798 38.4883 37.6475 38.4883C35.8571 38.4883 34.2865 38.1383 32.9355 37.4385C31.6009 36.7386 30.5592 35.8027 29.8105 34.6309C29.0781 33.4427 28.7119 32.1162 28.7119 30.6514C28.7119 29.2354 28.9886 27.9902 29.542 26.916C30.0954 25.8255 30.8929 24.9222 31.9346 24.2061C32.9762 23.4736 34.2295 22.9202 35.6943 22.5459C37.1592 22.1715 38.7949 21.9844 40.6016 21.9844H45.8506ZM56.666 0.5H61.207V32.873L60.8164 38H56.666V0.5ZM79.0537 24.5723V25.085C79.0537 27.0055 78.8258 28.7878 78.3701 30.4316C77.9144 32.0592 77.2471 33.4753 76.3682 34.6797C75.4893 35.8841 74.415 36.82 73.1455 37.4873C71.876 38.1546 70.4193 38.4883 68.7754 38.4883C67.099 38.4883 65.626 38.2035 64.3564 37.6338C63.1032 37.0479 62.0452 36.2096 61.1826 35.1191C60.32 34.0286 59.6283 32.7103 59.1074 31.1641C58.6029 29.6178 58.2529 27.8763 58.0576 25.9395V23.6934C58.2529 21.7402 58.6029 19.9906 59.1074 18.4443C59.6283 16.8981 60.32 15.5798 61.1826 14.4893C62.0452 13.3825 63.1032 12.5443 64.3564 11.9746C65.6097 11.3887 67.0664 11.0957 68.7266 11.0957C70.3867 11.0957 71.8597 11.4212 73.1455 12.0723C74.4313 12.707 75.5055 13.6185 76.3682 14.8066C77.2471 15.9948 77.9144 17.4189 78.3701 19.0791C78.8258 20.723 79.0537 22.554 79.0537 24.5723ZM74.5127 25.085V24.5723C74.5127 23.2539 74.3906 22.0169 74.1465 20.8613C73.9023 19.6895 73.5117 18.6641 72.9746 17.7852C72.4375 16.89 71.7295 16.1901 70.8506 15.6855C69.9717 15.1647 68.8893 14.9043 67.6035 14.9043C66.4642 14.9043 65.4714 15.0996 64.625 15.4902C63.7949 15.8809 63.0869 16.4098 62.501 17.0771C61.915 17.7282 61.4349 18.4769 61.0605 19.3232C60.7025 20.1533 60.4339 21.016 60.2549 21.9111V27.7949C60.5153 28.9342 60.9385 30.0329 61.5244 31.0908C62.1266 32.1325 62.9242 32.987 63.917 33.6543C64.9261 34.3216 66.1712 34.6553 67.6523 34.6553C68.873 34.6553 69.9147 34.4111 70.7773 33.9229C71.6562 33.4183 72.3643 32.7266 72.9014 31.8477C73.4548 30.9688 73.8617 29.9515 74.1221 28.7959C74.3825 27.6403 74.5127 26.4033 74.5127 25.085ZM89.6738 0.5V38H85.1328V0.5H89.6738ZM107.887 38.4883C106.048 38.4883 104.379 38.179 102.882 37.5605C101.401 36.9258 100.123 36.0387 99.0488 34.8994C97.9909 33.7601 97.1771 32.4092 96.6074 30.8467C96.0378 29.2842 95.7529 27.5752 95.7529 25.7197V24.6943C95.7529 22.5459 96.0703 20.6335 96.7051 18.957C97.3398 17.2643 98.2025 15.832 99.293 14.6602C100.383 13.4883 101.62 12.6012 103.004 11.999C104.387 11.3968 105.82 11.0957 107.301 11.0957C109.189 11.0957 110.816 11.4212 112.184 12.0723C113.567 12.7233 114.698 13.6348 115.577 14.8066C116.456 15.9622 117.107 17.3294 117.53 18.9082C117.953 20.4707 118.165 22.1797 118.165 24.0352V26.0615H98.4385V22.375H113.648V22.0332C113.583 20.8613 113.339 19.722 112.916 18.6152C112.509 17.5085 111.858 16.597 110.963 15.8809C110.068 15.1647 108.847 14.8066 107.301 14.8066C106.275 14.8066 105.331 15.0264 104.469 15.4658C103.606 15.889 102.866 16.5238 102.247 17.3701C101.629 18.2165 101.148 19.25 100.807 20.4707C100.465 21.6914 100.294 23.0993 100.294 24.6943V25.7197C100.294 26.973 100.465 28.153 100.807 29.2598C101.165 30.3503 101.677 31.3105 102.345 32.1406C103.028 32.9707 103.85 33.6217 104.811 34.0938C105.787 34.5658 106.894 34.8018 108.131 34.8018C109.726 34.8018 111.077 34.4762 112.184 33.8252C113.29 33.1742 114.259 32.3034 115.089 31.2129L117.823 33.3857C117.254 34.2484 116.529 35.0703 115.65 35.8516C114.771 36.6328 113.689 37.2676 112.403 37.7559C111.134 38.2441 109.628 38.4883 107.887 38.4883ZM123.512 35.6074C123.512 34.8424 123.748 34.1995 124.22 33.6787C124.708 33.1416 125.408 32.873 126.319 32.873C127.231 32.873 127.923 33.1416 128.395 33.6787C128.883 34.1995 129.127 34.8424 129.127 35.6074C129.127 36.3561 128.883 36.9909 128.395 37.5117C127.923 38.0326 127.231 38.293 126.319 38.293C125.408 38.293 124.708 38.0326 124.22 37.5117C123.748 36.9909 123.512 36.3561 123.512 35.6074Z" fill="black"/>
</svg>
