<svg width="18" height="30" viewBox="0 0 18 30" fill="none" xmlns="http://www.w3.org/2000/svg">
<path d="M8.57173 0C4.35948 0 0.932856 3.47313 0.932856 7.74282C0.932856 12.0122 4.35948 15.4837 8.57173 15.4837C12.7838 15.4837 16.2088 12.0122 16.2088 7.74282C16.2088 3.47313 12.7839 0 8.57173 0ZM8.57173 4.53657C10.3151 4.53657 11.7327 5.97558 11.7327 7.74282C11.7327 9.50931 10.3151 10.9472 8.57173 10.9472C6.82804 10.9472 5.4089 9.50934 5.4089 7.74282C5.4089 5.97558 6.82804 4.53657 8.57173 4.53657ZM2.27384 15.7472C1.51807 15.7353 0.774885 16.1129 0.343764 16.8094C-0.315081 17.8704 0.000535866 19.2704 1.04478 19.9378C2.42604 20.8162 3.92487 21.4395 5.47922 21.7987L1.21033 26.1281C0.336424 27.0144 0.337164 28.4499 1.21124 29.3362C1.64935 29.7786 2.22074 30 2.79359 30C3.36584 30 3.93916 29.7783 4.37594 29.3353L8.56993 25.0819L12.7676 29.3353C13.6408 30.2214 15.0567 30.2214 15.9314 29.3353C16.8056 28.4496 16.8056 27.0126 15.9314 26.1281L11.6606 21.7997C13.2154 21.4405 14.7147 20.8169 16.095 19.9378C17.1414 19.2705 17.4574 17.8689 16.7988 16.8094C16.1394 15.7481 14.7589 15.4285 13.7118 16.0969C10.5846 18.091 6.55516 18.0896 3.42891 16.0969C3.06905 15.8671 2.66971 15.7534 2.27384 15.7472V15.7472Z" fill="#282828"/>
</svg>
