<svg width="40" height="38" viewBox="0 0 40 38" fill="none" xmlns="http://www.w3.org/2000/svg">
<path d="M20 6.87L18.2075 5.0275C14 0.702499 6.28504 2.195 3.50004 7.6325C2.19254 10.19 1.89754 13.8825 4.28504 18.595C6.58504 23.1325 11.37 28.5675 20 34.4875C28.63 28.5675 33.4125 23.1325 35.715 18.595C38.1025 13.88 37.81 10.19 36.5 7.6325C33.715 2.195 26 0.699999 21.7925 5.025L20 6.87ZM20 37.5C-18.3325 12.17 8.19754 -7.6 19.56 2.8575C19.71 2.995 19.8575 3.1375 20 3.285C20.1411 3.13763 20.2879 2.99586 20.44 2.86C31.8 -7.605 58.3325 12.1675 20 37.5Z" fill="#282828"/>
</svg>
