<svg width="40" height="40" viewBox="0 0 40 40" fill="none" xmlns="http://www.w3.org/2000/svg">
<path d="M19.9997 34.4876L3.33333 17.3333C-0.874166 13.0083 21.8885 14.3201 19.1035 19.7576C17.796 22.3151 11.6125 4.62077 14 9.33327C16.3 13.8708 18 9.99994 19.9997 34.4876C28.6297 28.5676 28.3642 21.8708 30.6667 17.3333C33.0542 12.6183 16.8336 17.034 25.3333 11.9999C22.5483 6.56244 38 12.6666 34.6667 22.6666L26.6667 30.6666L19.9997 34.4876ZM19.9997 37.5001C-18.3328 12.1701 8.19724 -7.59994 19.5597 2.85756C19.7097 2.99506 19.8572 3.13756 19.9997 3.28506C20.1408 3.13769 20.2876 2.99592 20.4397 2.86006C31.7997 -7.60494 58.3322 12.1676 19.9997 37.5001Z" fill="#C4C4C4"/>
</svg>
